<svg width="111" height="36" viewBox="0 0 111 36" fill="none" xmlns="http://www.w3.org/2000/svg">
<circle cx="101" cy="12" r="10" transform="rotate(-90 101 12)" fill="#FF5B16"/>
<path d="M0.84 17.6C0.84 22.616 4.512 26.144 9.336 26.144C13.056 26.144 16.08 24.176 17.208 20.72H13.344C12.552 22.352 11.112 23.144 9.312 23.144C6.384 23.144 4.296 20.984 4.296 17.6C4.296 14.192 6.384 12.056 9.312 12.056C11.112 12.056 12.552 12.848 13.344 14.456H17.208C16.08 11.024 13.056 9.032 9.336 9.032C4.512 9.032 0.84 12.584 0.84 17.6ZM32.6779 19.352C32.6779 15.152 29.6779 12.488 25.8379 12.488C21.9979 12.488 18.9979 15.152 18.9979 19.352C18.9979 23.528 21.9019 26.216 25.7419 26.216C29.6059 26.216 32.6779 23.528 32.6779 19.352ZM22.4059 19.352C22.4059 16.688 24.0139 15.416 25.7899 15.416C27.5659 15.416 29.2219 16.688 29.2219 19.352C29.2219 21.992 27.5179 23.288 25.7419 23.288C23.9419 23.288 22.4059 21.992 22.4059 19.352ZM47.7426 19.352C47.7426 15.152 44.7426 12.488 40.9026 12.488C37.0626 12.488 34.0626 15.152 34.0626 19.352C34.0626 23.528 36.9666 26.216 40.8066 26.216C44.6706 26.216 47.7426 23.528 47.7426 19.352ZM37.4706 19.352C37.4706 16.688 39.0786 15.416 40.8546 15.416C42.6306 15.416 44.2866 16.688 44.2866 19.352C44.2866 21.992 42.5826 23.288 40.8066 23.288C39.0066 23.288 37.4706 21.992 37.4706 19.352ZM49.9672 26H53.3272V20.336L57.8392 26H62.2073L56.3032 19.376L62.1592 12.704H57.7912L53.3272 18.344V8.24H49.9672V26Z" fill="#FF5B16"/>
<path d="M63.7429 26H67.1029V12.704H63.7429V26ZM65.4469 11.12C66.6229 11.12 67.5109 10.256 67.5109 9.152C67.5109 8.048 66.6229 7.184 65.4469 7.184C64.2469 7.184 63.3829 8.048 63.3829 9.152C63.3829 10.256 64.2469 11.12 65.4469 11.12ZM79.4946 26H82.8546V18.2C82.8546 14.528 80.6466 12.512 77.5506 12.512C75.8466 12.512 74.4066 13.232 73.5426 14.36V12.704H70.1826V26H73.5426V18.656C73.5426 16.52 74.7186 15.368 76.5426 15.368C78.3186 15.368 79.4946 16.52 79.4946 18.656V26ZM84.9457 19.304C84.9457 23.456 87.6337 26.216 91.0177 26.216C93.1057 26.216 94.6177 25.184 95.4097 24.032V26.096C95.4097 28.568 93.9697 29.624 92.1217 29.624C90.4417 29.624 89.1937 28.832 88.8577 27.632H85.5217C85.8577 30.68 88.4737 32.552 92.2177 32.552C96.5857 32.552 98.7937 29.696 98.7937 26.096V12.704H95.4097V14.6C94.6177 13.448 93.1057 12.488 91.0177 12.488C87.6337 12.488 84.9457 15.152 84.9457 19.304ZM95.4097 19.352C95.4097 21.872 93.7297 23.264 91.8817 23.264C90.0817 23.264 88.3777 21.824 88.3777 19.304C88.3777 16.784 90.0817 15.44 91.8817 15.44C93.7297 15.44 95.4097 16.832 95.4097 19.352Z" fill="#2A2A2A"/>
</svg>
